<svg width="85" height="85" fill="none" xmlns="http://www.w3.org/2000/svg"><g clip-path="url(#clip0)" fill="#FFDA45"><path d="M56.097 59.57l3.887-6.307L67 50.87l.777-7.368 5.277-5.195-2.509-6.974 2.51-6.974-5.278-5.195L67 11.797l-7.015-2.393-3.887-6.307-7.352.888L42.5 0l-6.245 3.986-7.352-.888-3.887 6.308L18 11.798l-.777 7.367-5.277 5.195 2.509 6.974-2.51 6.974 5.278 5.195.777 7.368 7.015 2.392 3.887 6.307 7.352-.887 6.245 3.986 6.245-3.986 7.352.887zM21.013 31.334c0-11.848 9.639-21.487 21.487-21.487 11.848 0 21.487 9.64 21.487 21.487 0 11.848-9.639 21.488-21.487 21.488-11.848 0-21.487-9.64-21.487-21.488z"/><path d="M42.5 14.83c-9.1 0-16.504 7.404-16.504 16.504 0 9.1 7.404 16.504 16.504 16.504 9.1 0 16.504-7.404 16.504-16.504 0-9.1-7.404-16.503-16.504-16.503zm-7.42 49.014L26.332 64.9l-4.62-7.498-1.571-.536-6.776 21.178 12.198-.67L35.108 85l5.616-17.553-5.645-3.603zm28.208-6.442L58.667 64.9l-8.746-1.056-5.644 3.603L49.893 85l9.543-7.627 12.198.671-6.776-21.178-1.57.536z"/></g><defs><clipPath id="clip0"><path fill="#fff" d="M0 0h85v85H0z"/></clipPath></defs></svg>