<svg width="175" height="175" fill="none" xmlns="http://www.w3.org/2000/svg"><path d="M87.5 0C39.25 0 0 39.25 0 87.5 0 135.749 39.25 175 87.5 175c48.249 0 87.5-39.251 87.5-87.5C175 39.25 135.749 0 87.5 0z" fill="#FFDA45"/><path d="M94.791 131.25a7.29 7.29 0 11-14.582 0 7.291 7.291 0 0114.582 0zm4.251-39.069a7.324 7.324 0 00-4.25 6.63v3.273a7.29 7.29 0 01-7.292 7.291 7.29 7.29 0 01-7.291-7.291V98.81c0-8.51 5.001-16.311 12.724-19.878 7.43-3.419 12.796-12.498 12.796-16.953 0-10.047-8.174-18.229-18.229-18.229s-18.229 8.182-18.229 18.229a7.291 7.291 0 01-7.292 7.292 7.29 7.29 0 01-7.291-7.292c0-18.09 14.72-32.813 32.812-32.813 18.091 0 32.812 14.723 32.812 32.813 0 9.852-8.546 24.333-21.27 30.202z" fill="#309"/></svg>