<svg width="52" height="52" viewBox="0 0 52 52" fill="none" xmlns="http://www.w3.org/2000/svg">
<path d="M26.0065 0H25.9935C11.6578 0 0 11.661 0 26C0 31.6875 1.833 36.959 4.94975 41.2393L1.7095 50.8983L11.7032 47.7035C15.8145 50.427 20.7188 52 26.0065 52C40.3422 52 52 40.3358 52 26C52 11.6643 40.3422 0 26.0065 0Z" fill="white"/>
<path d="M41.1353 36.7153C40.508 38.4866 38.0185 39.9556 36.0328 40.3846C34.6743 40.6738 32.8998 40.9046 26.9263 38.4281C19.2855 35.2626 14.365 27.4983 13.9815 26.9946C13.6143 26.4908 10.894 22.8833 10.894 19.1523C10.894 15.4213 12.7888 13.6046 13.5525 12.8246C14.1798 12.1843 15.2165 11.8918 16.211 11.8918C16.5328 11.8918 16.822 11.9081 17.082 11.9211C17.8458 11.9536 18.2293 11.9991 18.733 13.2048C19.3603 14.7161 20.8878 18.4471 21.0698 18.8306C21.255 19.2141 21.4403 19.7341 21.1803 20.2378C20.9365 20.7578 20.722 20.9886 20.3385 21.4306C19.955 21.8726 19.591 22.2106 19.2075 22.6851C18.8565 23.0978 18.46 23.5398 18.902 24.3036C19.344 25.0511 20.8715 27.5438 23.1205 29.5458C26.0228 32.1296 28.3758 32.9551 29.2175 33.3061C29.8448 33.5661 30.5923 33.5043 31.0505 33.0168C31.6323 32.3896 32.3505 31.3496 33.0818 30.3258C33.6018 29.5913 34.2583 29.5003 34.9473 29.7603C35.6493 30.0041 39.364 31.8403 40.1278 32.2206C40.8915 32.6041 41.3953 32.7861 41.5805 33.1078C41.7625 33.4296 41.7625 34.9408 41.1353 36.7153Z" fill="#2E009F"/>
</svg>
