<svg width="16" height="22" viewBox="0 0 16 22" fill="none" xmlns="http://www.w3.org/2000/svg">
<path d="M14.5131 3.76739C13.1779 1.46324 10.8064 0.0555371 8.16918 0.00174023C8.0566 -0.000580078 7.94329 -0.000580078 7.83067 0.00174023C5.19351 0.0555371 2.82198 1.46324 1.48677 3.76739C0.121994 6.1226 0.0846544 8.95166 1.38687 11.3352L6.84231 21.3206C6.84476 21.325 6.8472 21.3294 6.84974 21.3338C7.08976 21.751 7.51975 22 8.00001 22C8.48023 22 8.91022 21.7509 9.1502 21.3338C9.15273 21.3294 9.15518 21.325 9.15763 21.3206L14.6131 11.3352C15.9152 8.95166 15.8779 6.1226 14.5131 3.76739ZM7.99993 9.96877C6.29402 9.96877 4.90618 8.58092 4.90618 6.87502C4.90618 5.16912 6.29402 3.78127 7.99993 3.78127C9.70583 3.78127 11.0937 5.16912 11.0937 6.87502C11.0937 8.58092 9.70587 9.96877 7.99993 9.96877Z" fill="#E1E6E9"/>
</svg>
