<svg viewBox="0 0 60 60" fill="none" xmlns="http://www.w3.org/2000/svg"><path d="M30 0C13.434 0 0 13.434 0 30c0 16.566 13.434 30 30 30 16.566 0 30-13.434 30-30C60 13.434 46.566 0 30 0zm-8.718 45.352h-7.306V23.37h7.306v21.982zM17.63 20.369h-.047c-2.452 0-4.038-1.688-4.038-3.797 0-2.157 1.634-3.799 4.134-3.799 2.5 0 4.037 1.642 4.085 3.799 0 2.109-1.586 3.797-4.134 3.797zm29.999 24.983h-7.306v-11.76c0-2.955-1.058-4.97-3.701-4.97-2.019 0-3.22 1.359-3.749 2.671-.193.47-.24 1.126-.24 1.783v12.276h-7.306s.095-19.92 0-21.982h7.306v3.113c.97-1.498 2.708-3.629 6.584-3.629 4.807 0 8.412 3.142 8.412 9.894v12.604z" fill="#fff"/></svg>