<svg width="175" height="175" fill="none" xmlns="http://www.w3.org/2000/svg"><path d="M87.5 175c48.325 0 87.5-39.175 87.5-87.5S135.825 0 87.5 0 0 39.175 0 87.5 39.175 175 87.5 175z" fill="#FFDA45"/><path d="M70.998 112.383h33.018v14.629H70.998v-14.629z" fill="#2F4859"/><path d="M131.66 46.101H43.34a3.39 3.39 0 00-3.39 3.39v62.645a3.39 3.39 0 003.39 3.391h88.32a3.39 3.39 0 003.391-3.391V49.492a3.39 3.39 0 00-3.391-3.39z" fill="#3A556A"/><path d="M45.773 51.926h83.454v51.939H45.773v-51.94z" fill="#309"/><path d="M110.25 125.111h-45.5a1.902 1.902 0 00-1.239 3.179c.323.351.765.568 1.24.608h45.499a1.897 1.897 0 001.739-1.893 1.902 1.902 0 00-1.739-1.894z" fill="#3A556A"/><path d="M87.5 106.969a2.73 2.73 0 00-2.526 1.688 2.734 2.734 0 102.526-1.688z" fill="#2F4859"/><path d="M64.135 64.586h-.807v-5.154c-.235.213-.492.4-.766.56a4.809 4.809 0 01-.861.41v-.779a4.795 4.795 0 001.19-.765c.29-.248.535-.544.724-.875h.52v6.603zm3.568-3.254a6.327 6.327 0 01.233-1.873c.129-.424.375-.803.71-1.094.345-.264.77-.4 1.204-.382.321-.005.64.065.93.205.262.152.486.363.656.615.184.306.322.638.41.984.105.508.15 1.027.136 1.545a5.906 5.906 0 01-.232 1.873 2.18 2.18 0 01-.656 1.053c-.337.27-.758.41-1.19.396a1.833 1.833 0 01-1.504-.683 4.402 4.402 0 01-.697-2.639zm.834 0c-.068.74.059 1.485.37 2.16a1.12 1.12 0 00.943.533 1.107 1.107 0 00.93-.533 4.101 4.101 0 00.382-2.16 4.005 4.005 0 00-.383-2.146 1.094 1.094 0 00-1.45-.423 1.04 1.04 0 00-.382.354 4.198 4.198 0 00-.41 2.215zm9.393 3.254h-.807v-5.154c-.236.212-.492.4-.766.56-.27.162-.553.3-.847.41v-.779a4.716 4.716 0 001.175-.766c.29-.247.536-.543.725-.875h.52v6.604zm6.972 0h-.806v-5.154c-.233.215-.49.404-.766.56a4.722 4.722 0 01-.848.41v-.779a4.797 4.797 0 001.19-.766c.29-.243.532-.54.71-.875h.52v6.604zm3.568-3.254a5.866 5.866 0 01.247-1.873c.129-.424.375-.803.71-1.094.339-.265.76-.4 1.19-.382.322-.009.641.062.93.205.269.148.499.36.67.615.18.307.313.638.396.984.118.506.168 1.026.15 1.545a6.33 6.33 0 01-.232 1.873 2.283 2.283 0 01-.71 1.094 1.996 1.996 0 01-2.735-.287 4.307 4.307 0 01-.615-2.68zm.835 0a4.102 4.102 0 00.382 2.16 1.108 1.108 0 00.93.533 1.147 1.147 0 00.944-.533 4.197 4.197 0 00.382-2.16 4.101 4.101 0 00-.341-2.146 1.121 1.121 0 00-.944-.547 1.04 1.04 0 00-.889.478c-.36.68-.52 1.448-.464 2.215zm9.461 3.254h-.82v-5.154a3.73 3.73 0 01-.766.56 4.722 4.722 0 01-.848.41v-.779a4.795 4.795 0 001.19-.766c.29-.243.531-.54.71-.875h.534v6.604zm3.568-3.254a5.891 5.891 0 01.205-1.873c.129-.424.375-.803.711-1.094a1.817 1.817 0 011.203-.383 1.97 1.97 0 01.916.206c.269.148.499.36.67.615.179.309.317.64.41.984.105.508.151 1.026.137 1.545a5.901 5.901 0 01-.233 1.873 2.274 2.274 0 01-.711 1.094c-.336.27-.758.41-1.189.396a1.83 1.83 0 01-1.504-.683 4.324 4.324 0 01-.615-2.68zm.82 0a4.197 4.197 0 00.383 2.16 1.092 1.092 0 001.873 0 4.197 4.197 0 00.383-2.16 4.105 4.105 0 00-.383-2.146 1.125 1.125 0 00-.943-.547 1.042 1.042 0 00-.889.478 4.1 4.1 0 00-.424 2.215zm9.461 3.254h-.807v-5.154c-.235.212-.491.4-.765.56a4.812 4.812 0 01-.861.41v-.779a4.806 4.806 0 001.189-.766c.29-.247.535-.543.725-.875h.519v6.604zm-48.48 11.02h-.807v-5.141a4.631 4.631 0 01-.766.547 4.96 4.96 0 01-.861.424v-.78c.43-.205.83-.467 1.19-.779.293-.245.538-.541.724-.875h.52v6.604zm3.664-3.241a6.428 6.428 0 01.232-1.886 2.45 2.45 0 01.725-1.094c.338-.265.76-.401 1.19-.383a1.87 1.87 0 01.929.219c.268.145.494.357.656.615a3 3 0 01.41.97 6.6 6.6 0 01.15 1.56 5.767 5.767 0 01-.245 1.859 2.3 2.3 0 01-.711 1.107 2.01 2.01 0 01-2.735-.3 4.389 4.389 0 01-.601-2.667zm.834 0a4.17 4.17 0 00.369 2.147 1.12 1.12 0 00.943.547 1.094 1.094 0 00.93-.547c.324-.666.456-1.41.383-2.147a4.101 4.101 0 00-.383-2.16 1.108 1.108 0 00-.943-.533 1.025 1.025 0 00-.889.465 4.294 4.294 0 00-.41 2.228zm6.193 0a6 6 0 01.233-1.886 2.42 2.42 0 01.71-1.094c.339-.265.76-.401 1.19-.383.324-.01.645.065.93.219.275.14.507.353.67.615.182.3.316.628.396.97a5.97 5.97 0 01.15 1.56 6.236 6.236 0 01-.232 1.859 2.393 2.393 0 01-.71 1.107c-.343.267-.77.403-1.204.383a1.792 1.792 0 01-1.49-.684 4.293 4.293 0 01-.643-2.666zm.82 0a4.102 4.102 0 00.383 2.147 1.095 1.095 0 00.93.547 1.106 1.106 0 00.943-.547 4.1 4.1 0 00.383-2.147 4.197 4.197 0 00-.355-2.16 1.148 1.148 0 00-.944-.533 1.025 1.025 0 00-.888.465 4.102 4.102 0 00-.451 2.228zm6.194 0a5.948 5.948 0 01.191-1.886 2.42 2.42 0 01.711-1.094c.338-.265.76-.401 1.19-.383.323-.01.644.065.93.219.273.137.501.35.656.615.192.297.331.626.41.97.13.51.198 1.034.205 1.56a6.232 6.232 0 01-.233 1.859 2.393 2.393 0 01-.71 1.107c-.344.265-.77.4-1.204.383a1.765 1.765 0 01-1.49-.684 4.293 4.293 0 01-.656-2.666zm.834 0c-.074.738.059 1.48.383 2.147a1.095 1.095 0 00.93.547 1.12 1.12 0 00.943-.547 4.17 4.17 0 00.369-2.147 4.24 4.24 0 00-.37-2.16 1.15 1.15 0 00-.956-.533.999.999 0 00-.875.465 4.1 4.1 0 00-.424 2.228zm9.543 3.241h-.807v-5.141a3.707 3.707 0 01-.766.547c-.268.168-.552.31-.847.424v-.78c.43-.205.83-.467 1.19-.779a2.8 2.8 0 00.71-.875h.52v6.604zm3.677-3.241a6.425 6.425 0 01.233-1.886 2.42 2.42 0 01.71-1.094c.344-.265.77-.4 1.204-.383.32-.009.635.067.916.219.275.14.507.353.67.615.181.303.32.63.41.97a6.74 6.74 0 01.137 1.56 5.825 5.825 0 01-.233 1.859 2.392 2.392 0 01-.71 1.107 2.01 2.01 0 01-2.735-.3 4.293 4.293 0 01-.602-2.667zm.82 0a4.101 4.101 0 00.356 2.147 1.107 1.107 0 00.944.547 1.094 1.094 0 00.93-.547 4.1 4.1 0 00.382-2.147 4.196 4.196 0 00-.383-2.16 1.12 1.12 0 00-.916-.478 1.025 1.025 0 00-.889.465 4.265 4.265 0 00-.423 2.173zm6.194 0a5.933 5.933 0 01.246-1.886 2.41 2.41 0 01.711-1.094c.338-.265.76-.401 1.189-.383.324-.01.645.065.93.219.274.137.502.35.656.615.193.297.332.626.411.97.118.511.168 1.035.15 1.56a6.245 6.245 0 01-.232 1.859 2.401 2.401 0 01-.711 1.107c-.344.265-.77.4-1.204.383a1.765 1.765 0 01-1.49-.684 4.297 4.297 0 01-.656-2.666zm.834 0c-.073.738.059 1.48.383 2.147a1.09 1.09 0 00.929.547 1.121 1.121 0 00.944-.547c.311-.67.438-1.411.369-2.147a4.246 4.246 0 00-.369-2.16 1.144 1.144 0 00-.944-.533 1.008 1.008 0 00-.888.465 4.102 4.102 0 00-.424 2.228zm9.557 3.241h-.82v-5.141a3.72 3.72 0 01-.766.547c-.268.168-.552.31-.848.424v-.78c.43-.205.83-.467 1.19-.779a2.83 2.83 0 00.711-.875h.533v6.604zM64.135 86.639h-.807v-5.154a4.63 4.63 0 01-.766.56 4.81 4.81 0 01-.861.41v-.78a4.801 4.801 0 001.19-.765 3.31 3.31 0 00.724-.875h.52v6.604zm3.568-3.24a6.33 6.33 0 01.232-1.873 2.35 2.35 0 01.711-1.094c.344-.264.77-.4 1.203-.383.322-.005.64.065.93.205.268.145.495.357.656.615.187.305.326.637.41.985a6.7 6.7 0 01.137 1.545 5.904 5.904 0 01-.232 1.873 2.256 2.256 0 01-.711 1.093c-.337.27-.758.411-1.19.397a1.833 1.833 0 01-1.49-.629 4.403 4.403 0 01-.656-2.734zm.834 0a4.24 4.24 0 00.37 2.16 1.12 1.12 0 00.942.533 1.108 1.108 0 00.93-.533 6.289 6.289 0 000-4.32 1.108 1.108 0 00-.943-.534 1.04 1.04 0 00-.889.479 4.197 4.197 0 00-.41 2.215zm9.393 3.24h-.807v-5.154c-.236.212-.492.4-.766.56-.27.162-.553.3-.847.41v-.78a4.719 4.719 0 001.175-.765 3.31 3.31 0 00.725-.875h.52v6.604zm3.623-3.241a6.333 6.333 0 01.232-1.873 2.37 2.37 0 01.725-1.093c.338-.266.76-.401 1.19-.383.32-.007.64.064.929.205.268.145.494.357.656.615.193.302.332.635.41.984.111.508.162 1.026.15 1.545a5.866 5.866 0 01-.245 1.874 2.255 2.255 0 01-.712 1.093c-.336.27-.758.411-1.189.397a1.79 1.79 0 01-1.49-.684 4.307 4.307 0 01-.656-2.68zm.834 0c-.069.74.058 1.485.369 2.16a1.15 1.15 0 00.943.534 1.108 1.108 0 00.93-.533 6.289 6.289 0 000-4.32 1.107 1.107 0 00-.944-.534 1.04 1.04 0 00-.888.479 4.197 4.197 0 00-.41 2.214zm9.447 3.241h-.807v-5.154a4.103 4.103 0 01-.793.546c-.27.162-.553.3-.847.41v-.779c.43-.192.826-.45 1.175-.765.294-.244.54-.541.725-.875h.52l.027 6.617zm3.568-3.241a5.867 5.867 0 01.301-1.886c.124-.427.371-.807.71-1.094.34-.265.761-.4 1.19-.383.322-.006.64.064.93.205.268.145.494.357.656.616.193.301.332.634.41.984.094.514.126 1.037.096 1.558a5.865 5.865 0 01-.246 1.874 2.256 2.256 0 01-.71 1.093c-.337.27-.76.411-1.19.397a1.79 1.79 0 01-1.49-.684 4.306 4.306 0 01-.657-2.68zm.834 0c-.07.742.062 1.489.383 2.16a1.08 1.08 0 001.86 0 6.289 6.289 0 000-4.32 1.107 1.107 0 00-.944-.533 1.04 1.04 0 00-.889.479 4.197 4.197 0 00-.41 2.215zm9.448 3.241h-.807v-5.154a4.17 4.17 0 01-.766.56 5.2 5.2 0 01-.847.41v-.78a4.793 4.793 0 001.189-.765c.287-.247.527-.544.711-.875h.52v6.604zm6.931 0h-.807v-5.154c-.235.212-.491.4-.765.56a4.812 4.812 0 01-.861.41v-.78a4.811 4.811 0 001.189-.765c.29-.247.535-.543.725-.875h.519v6.604zm-48.48 11.019h-.807v-5.14a4.637 4.637 0 01-.766.547 4.96 4.96 0 01-.861.423v-.779c.43-.205.83-.467 1.19-.78.293-.244.538-.54.724-.874h.52v6.603zm3.664-3.24a6.429 6.429 0 01.232-1.887 2.45 2.45 0 01.725-1.094c.338-.265.76-.4 1.19-.382.323-.01.643.066.929.218.268.145.494.357.656.616.193.297.332.625.41.97.112.512.162 1.035.15 1.559a5.767 5.767 0 01-.245 1.86 2.3 2.3 0 01-.711 1.107 2.01 2.01 0 01-2.735-.301 4.389 4.389 0 01-.601-2.666zm.834 0a4.17 4.17 0 00.369 2.146 1.121 1.121 0 00.943.547 1.094 1.094 0 00.93-.547 4.003 4.003 0 00.383-2.146 4.101 4.101 0 00-.383-2.16 1.108 1.108 0 00-.943-.533 1.025 1.025 0 00-.889.464 4.294 4.294 0 00-.41 2.229zm6.193 0a6.001 6.001 0 01.232-1.887 2.42 2.42 0 01.711-1.094c.339-.265.76-.4 1.19-.382.324-.011.644.064.93.218.275.14.506.353.67.616.182.3.316.628.396.97.118.511.169 1.035.15 1.559a6.232 6.232 0 01-.232 1.86 2.393 2.393 0 01-.711 1.107c-.343.267-.77.403-1.203.382a1.791 1.791 0 01-1.49-.697 4.293 4.293 0 01-.643-2.652zm.82 0a4.101 4.101 0 00.383 2.146 1.094 1.094 0 00.93.547 1.106 1.106 0 00.943-.547c.32-.667.451-1.41.383-2.146a4.198 4.198 0 00-.355-2.16 1.15 1.15 0 00-.944-.533 1.025 1.025 0 00-.889.464 4.102 4.102 0 00-.45 2.229zm9.557 3.24h-.806v-5.14a4.637 4.637 0 01-.766.547 4.96 4.96 0 01-.862.423v-.779a4.974 4.974 0 001.19-.78 3.1 3.1 0 00.725-.874h.52v6.603zm3.664-3.24a5.948 5.948 0 01.246-1.887c.127-.425.374-.805.711-1.094.338-.265.76-.4 1.19-.382.323-.01.643.066.93.218.267.145.494.357.656.616.192.297.331.625.41.97.111.512.161 1.035.15 1.559a5.767 5.767 0 01-.191 1.86 2.3 2.3 0 01-.711 1.107c-.339.265-.76.4-1.19.382a1.75 1.75 0 01-1.49-.683 4.292 4.292 0 01-.71-2.666zm.834 0a4.17 4.17 0 00.37 2.146 1.121 1.121 0 00.942.547 1.094 1.094 0 00.93-.547 4.003 4.003 0 00.383-2.146 4.101 4.101 0 00-.383-2.16 1.108 1.108 0 00-.943-.533 1.025 1.025 0 00-.889.464 4.294 4.294 0 00-.41 2.229zm6.193 0a6.425 6.425 0 01.233-1.887 2.42 2.42 0 01.71-1.094c.344-.265.77-.4 1.204-.382.32-.01.635.066.916.218.275.14.507.353.67.615.181.303.32.63.41.971a6.74 6.74 0 01.137 1.559 5.825 5.825 0 01-.233 1.86 2.392 2.392 0 01-.71 1.107 2.01 2.01 0 01-2.735-.301 4.293 4.293 0 01-.602-2.666zm.82 0a4.101 4.101 0 00.356 2.146 1.107 1.107 0 00.944.547 1.094 1.094 0 00.93-.547 4.1 4.1 0 00.382-2.146 4.196 4.196 0 00-.383-2.16 1.12 1.12 0 00-1.448-.417 1.025 1.025 0 00-.384.348 4.266 4.266 0 00-.396 2.229zm6.194 0a5.934 5.934 0 01.246-1.887c.132-.423.378-.801.711-1.094.338-.265.76-.4 1.189-.382.324-.011.645.064.93.218.274.137.502.351.656.616.193.297.332.625.411.97.118.51.168 1.035.15 1.559a6.245 6.245 0 01-.232 1.86 2.401 2.401 0 01-.711 1.107c-.344.265-.77.4-1.204.382a1.765 1.765 0 01-1.49-.683 4.297 4.297 0 01-.656-2.666zm.834 0c-.073.737.059 1.48.383 2.146a1.09 1.09 0 00.929.547 1.121 1.121 0 00.944-.547 4.17 4.17 0 00.369-2.146 4.246 4.246 0 00-.369-2.16 1.145 1.145 0 00-.944-.533 1.007 1.007 0 00-.888.464 4.102 4.102 0 00-.424 2.229zm9.557 3.24h-.82v-5.14a3.72 3.72 0 01-.766.547c-.268.168-.552.31-.848.423v-.779c.43-.205.83-.467 1.19-.78a2.83 2.83 0 00.711-.874h.533v6.603z" fill="#E1E6E9"/><path d="M88.47 64.777a13.125 13.125 0 1013.126 13.125 13.126 13.126 0 00-3.84-9.285 13.114 13.114 0 00-9.285-3.84z" fill="#FFDA45"/><path d="M87.5 82.988l-4.772-4.771 1.942-1.928 2.83 2.83 5.947-5.947 1.941 1.928-7.888 7.888z" fill="#309"/></svg>