<svg width="175" height="175" fill="none" xmlns="http://www.w3.org/2000/svg"><path d="M175 87.5c0 11.4-2.179 22.289-6.147 32.279a86.95 86.95 0 01-7.839 15.192 87.633 87.633 0 01-13.518 16.218 87.554 87.554 0 01-9.582 7.836C123.664 169.089 106.275 175 87.5 175c-18.775 0-36.164-5.911-50.414-15.975a87.448 87.448 0 01-11.804-10.004C9.65 133.218 0 111.482 0 87.5s9.65-45.718 25.282-61.521a87.69 87.69 0 0112.554-10.525C51.943 5.707 69.053 0 87.5 0s35.557 5.707 49.664 15.454a86.74 86.74 0 019.772 7.835 87.62 87.62 0 0114.078 16.74 87.042 87.042 0 017.84 15.192C172.821 65.211 175 76.101 175 87.5z" fill="#FFDA45"/><path d="M133.66 79.628c-2.436-7.063-12.422-7.063-14.37-1.217-1.948 5.845 4.628 9.254 14.857 12.664s16.561 12.421 15.344 20.458c-1.218 8.037-4.628 18.51-24.842 18.51-12.634 0-19.655-7.897-23.145-13.819l11.454-6.883s3.897 8.281 11.203 8.281c7.307 0 10.229-2.435 10.229-8.037 0-6.819-23.624-9.255-27.277-20.945-3.653-11.69 1.218-28.252 18.266-27.034 10.655.761 16.649 5.993 19.646 9.81l-11.365 8.212zM80.566 62.824v46.761c0 5.602-4.87 8.525-9.742 7.55-4.87-.974-7.063-6.819-7.063-6.819l-11.203 7.55s2.436 11.203 17.78 12.177c15.343.975 24.11-8.28 24.11-16.074V62.824H80.566z" fill="#309"/><path d="M25.282 15.454V149.02a87.521 87.521 0 0011.804 10.004h100.828a87.66 87.66 0 009.583-7.836H33.117v-127.9h127.897v111.683a86.995 86.995 0 007.839-15.193V15.454H25.282z" fill="#309"/><path d="M30.029 129.8c7.666 0 13.882-6.215 13.882-13.882s-6.216-13.882-13.882-13.882c-7.667 0-13.883 6.215-13.883 13.882S22.363 129.8 30.03 129.8z" fill="#3F4A43"/></svg>