<svg width="85" height="85" fill="none" xmlns="http://www.w3.org/2000/svg"><path d="M62.588 2.656c-12.358 0-22.412 10.054-22.412 22.412 0 12.359 10.054 22.412 22.412 22.412C74.946 47.48 85 37.427 85 25.069 85 12.71 74.946 2.656 62.588 2.656zm0 34.864a7.461 7.461 0 01-6.883-4.563l4.587-1.94a2.49 2.49 0 102.296-3.458c-4.119 0-7.47-3.352-7.47-7.471s3.351-7.47 7.47-7.47a7.461 7.461 0 016.883 4.561l-4.587 1.941a2.489 2.489 0 00-2.296-1.522 2.493 2.493 0 00-2.49 2.49 2.493 2.493 0 002.49 2.49c4.119 0 7.47 3.352 7.47 7.47 0 4.12-3.351 7.472-7.47 7.472z" fill="#FFDA45"/><path d="M74.714 49.629a27.228 27.228 0 01-12.126 2.832c-14.264 0-26.018-10.96-27.282-24.902H30.05c-3.498 0-6.855.708-10.003 2.11a17.27 17.27 0 00-8.237-2.11H4.182L8.445 40.35a25.665 25.665 0 00-1.11 2.15H0v19.922h7.32a24.975 24.975 0 009.242 10.87 7.687 7.687 0 013.526 6.475v2.577h14.941v-4.98h14.942v4.98h14.941v-2.49c0-4.168 1.474-8.222 4.152-11.416a24.83 24.83 0 005.65-18.81zM25.068 47.48h-4.98V42.5h4.98v4.98z" fill="#FFDA45"/></svg>