<svg width="175" height="175" fill="none" xmlns="http://www.w3.org/2000/svg"><path d="M175 87.5c0 28.829-13.943 54.4-35.45 70.343A87.148 87.148 0 0187.5 175a87.556 87.556 0 01-21.536-2.671 87.086 87.086 0 01-30.518-14.49C13.94 141.896 0 116.325 0 87.5 0 39.175 39.175 0 87.5 0S175 39.175 175 87.5z" fill="#FFDA45"/><path d="M139.639 136.768c-.41-2.754-.953-5.589-1.625-8.489a135.075 135.075 0 00-2.064-7.779c-2.057-6.921-4.767-14.114-8.053-21.385a207.724 207.724 0 00-9.254-17.982 202.694 202.694 0 00-4.989-8.204 196.728 196.728 0 00-5.957-8.797c-4.65-6.482-9.525-12.428-14.493-17.671a129.05 129.05 0 00-5.704-5.672 106.427 106.427 0 00-6.543-5.657c-14.246-11.31-27-14.707-35.917-9.56-8.918 5.15-12.354 17.892-9.682 35.889.407 2.753.953 5.59 1.628 8.49a126.705 126.705 0 002.06 7.778c2.058 6.921 4.769 14.118 8.058 21.385a196.578 196.578 0 004.64 9.557 211.921 211.921 0 004.61 8.425c1.614 2.8 3.279 5.536 4.99 8.204a200.56 200.56 0 005.956 8.8c4.65 6.482 9.525 12.425 14.493 17.667a128.991 128.991 0 005.707 5.675 107.176 107.176 0 006.54 5.654c5.239 4.161 10.275 7.25 14.992 9.232a87.122 87.122 0 0030.518-14.486c1.257-5.792 1.303-12.888.089-21.074zm-8.021 19.775c-1.04 4.493-2.95 7.571-5.682 9.146-2.729 1.579-6.35 1.693-10.761.35-4.779-1.46-10.357-4.653-16.136-9.242a101.256 101.256 0 01-5.835-5.026 122.812 122.812 0 01-5.707-5.668c-3.25-3.439-6.465-7.203-9.6-11.242a180.913 180.913 0 01-6.165-8.44 198.609 198.609 0 01-8.414-13.346 198.182 198.182 0 01-7.35-13.96 177.676 177.676 0 01-4.225-9.558c-1.932-4.735-3.586-9.403-4.94-13.936a121.609 121.609 0 01-2.05-7.774 98.937 98.937 0 01-1.439-7.568c-1.085-7.296-1.06-13.725.064-18.593 1.04-4.493 2.954-7.571 5.682-9.146 1.475-.85 3.207-1.279 5.182-1.279 1.686 0 3.55.31 5.579.932 4.779 1.457 10.357 4.654 16.135 9.24a97.626 97.626 0 015.836 5.032c1.91 1.768 3.815 3.66 5.704 5.66 3.253 3.44 6.468 7.204 9.607 11.247a180.464 180.464 0 016.164 8.44 200.481 200.481 0 018.411 13.342 198.394 198.394 0 017.35 13.96 180.033 180.033 0 014.225 9.562c1.932 4.735 3.586 9.4 4.939 13.932a123.993 123.993 0 012.054 7.774 101.293 101.293 0 011.436 7.568c1.086 7.297 1.061 13.725-.064 18.593z" fill="#309"/><path d="M146.179 72.79a109.883 109.883 0 00-8.168-2.84c-2.5-.76-5.093-1.464-7.768-2.103-7.022-1.679-14.607-2.929-22.547-3.715a194.19 194.19 0 00-10.593-.76 208.098 208.098 0 00-19.21 0c-3.59.16-7.129.417-10.597.76-7.939.786-15.521 2.036-22.543 3.715a133.016 133.016 0 00-7.767 2.103c-2.85.868-5.579 1.818-8.168 2.84C11.9 79.467 2.578 88.817 2.578 99.113s9.322 19.647 26.24 26.329a110.08 110.08 0 008.164 2.839c2.5.761 5.093 1.464 7.768 2.1 7.022 1.682 14.607 2.929 22.55 3.718 3.468.343 7.007.596 10.597.761 3.164.146 6.371.217 9.603.217a208.4 208.4 0 009.6-.217c3.589-.165 7.125-.418 10.596-.761 7.94-.786 15.529-2.036 22.55-3.718a129.757 129.757 0 007.768-2.103 108.674 108.674 0 008.165-2.836c16.921-6.682 26.239-16.032 26.239-26.329 0-10.296-9.318-19.646-26.239-26.325zm13.114 35.817c-3.65 3.411-9.207 6.643-16.068 9.353a99.74 99.74 0 01-7.275 2.54c-2.49.768-5.079 1.471-7.757 2.107-4.604 1.096-9.472 1.996-14.54 2.693-3.378.468-6.846.843-10.386 1.118-5.132.411-10.407.618-15.767.618-5.361 0-10.636-.207-15.768-.614-3.54-.279-7.01-.654-10.39-1.122-5.067-.696-9.935-1.596-14.539-2.693a121.683 121.683 0 01-7.757-2.107 100.074 100.074 0 01-7.275-2.539c-6.86-2.711-12.418-5.943-16.068-9.354-3.371-3.146-5.082-6.339-5.082-9.493 0-3.153 1.71-6.346 5.082-9.492 3.65-3.411 9.207-6.643 16.068-9.354 2.31-.91 4.74-1.76 7.275-2.54a121.55 121.55 0 017.757-2.106c4.604-1.097 9.472-1.997 14.54-2.693 3.378-.468 6.85-.843 10.389-1.122a199.722 199.722 0 0115.768-.614c5.36 0 10.635.207 15.767.618 3.54.275 7.008.65 10.386 1.118 5.068.697 9.936 1.597 14.54 2.693 2.678.636 5.267 1.34 7.757 2.107a99.79 99.79 0 017.275 2.54c6.86 2.71 12.418 5.942 16.068 9.353 3.371 3.147 5.082 6.34 5.082 9.493 0 3.153-1.711 6.346-5.082 9.492z" fill="#309"/><path d="M129.957 25.572c-8.918-5.147-21.671-1.75-35.918 9.56A107.492 107.492 0 0087.5 40.79a129.153 129.153 0 00-5.707 5.675c-4.968 5.243-9.843 11.186-14.496 17.668a199.033 199.033 0 00-5.954 8.796 203.38 203.38 0 00-4.989 8.204 212.73 212.73 0 00-4.61 8.425 198.063 198.063 0 00-4.64 9.557c-3.29 7.271-6 14.464-8.057 21.385a130.537 130.537 0 00-2.065 7.782 107.433 107.433 0 00-1.624 8.486c-1.215 8.183-1.168 15.279.089 21.072a87.082 87.082 0 0030.518 14.489c4.718-1.982 9.753-5.071 14.993-9.232a107.364 107.364 0 006.543-5.654 129.257 129.257 0 005.703-5.671c4.965-5.243 9.843-11.19 14.493-17.672a199.699 199.699 0 005.957-8.8 203.346 203.346 0 004.99-8.203 206.258 206.258 0 004.61-8.422 199.448 199.448 0 004.643-9.56c3.286-7.268 5.997-14.465 8.054-21.386a131.83 131.83 0 002.06-7.779 107.09 107.09 0 001.629-8.489c2.671-17.996-.765-30.739-9.683-35.889zm-1.764 50.05c-1.354 4.532-3.007 9.196-4.939 13.931a179.82 179.82 0 01-4.225 9.561 198.308 198.308 0 01-7.35 13.961 201.546 201.546 0 01-8.411 13.343 181.752 181.752 0 01-6.168 8.442c-3.135 4.04-6.35 7.804-9.603 11.243-1.89 2-3.793 3.893-5.704 5.664a98.833 98.833 0 01-5.836 5.029c-5.778 4.589-11.357 7.782-16.135 9.243-4.41 1.343-8.032 1.228-10.76-.35-2.73-1.575-4.644-4.654-5.683-9.147-1.125-4.868-1.15-11.296-.064-18.592a100.64 100.64 0 011.436-7.568 124.053 124.053 0 012.053-7.775c1.353-4.532 3.007-9.2 4.94-13.936a178.19 178.19 0 014.224-9.557 198.268 198.268 0 017.35-13.96 198.763 198.763 0 018.415-13.347 178.932 178.932 0 016.16-8.436c3.14-4.042 6.354-7.806 9.604-11.246 1.892-2.004 3.8-3.897 5.707-5.664a99.986 99.986 0 015.835-5.029c5.779-4.585 11.358-7.782 16.136-9.24 2.029-.62 3.893-.931 5.578-.931 1.975 0 3.711.428 5.182 1.278 2.732 1.575 4.643 4.654 5.682 9.147 1.125 4.868 1.151 11.296.065 18.593a99.288 99.288 0 01-1.44 7.567 121.382 121.382 0 01-2.049 7.775z" fill="#309"/><path d="M87.5 115.075c8.815 0 15.961-7.146 15.961-15.96 0-8.816-7.146-15.961-15.961-15.961-8.815 0-15.96 7.145-15.96 15.96 0 8.815 7.145 15.961 15.96 15.961z" fill="#309"/></svg>