<svg xmlns="http://www.w3.org/2000/svg" xmlns:xlink="http://www.w3.org/1999/xlink"><defs><clipPath id="clip0"><path fill="#fff" d="M0 0h85v85H0z"/></clipPath></defs><symbol id="icon-fb" viewBox="0 0 60 60"><path d="M30 0C13.432 0 0 13.432 0 30c0 14.86 10.816 27.167 24.997 29.55V36.259H17.76v-8.381h7.237v-6.18c0-7.171 4.38-11.079 10.777-11.079 3.064 0 5.697.229 6.462.33v7.494l-4.437.002c-3.479 0-4.15 1.653-4.15 4.08v5.348h8.3l-1.082 8.382h-7.218V59.75C48.493 57.944 60 45.324 60 29.992 60 13.432 46.568 0 30 0z" fill="#fff"/></symbol><symbol id="icon-heart"><path d="M61.88.707C74.623.769 84.938 11.084 85 23.827c0 23.346-42.5 46.467-42.5 46.467S0 46.834 0 23.827C0 11.058 10.351.707 23.12.707A22.893 22.893 0 0142.5 11.133 23.12 23.12 0 0161.88.707z" fill="#FFDA45"/></symbol><symbol id="icon-in" viewBox="0 0 60 60"><path d="M30 0C13.434 0 0 13.434 0 30c0 16.566 13.434 30 30 30 16.566 0 30-13.434 30-30C60 13.434 46.566 0 30 0zm-8.718 45.352h-7.306V23.37h7.306v21.982zM17.63 20.369h-.047c-2.452 0-4.038-1.688-4.038-3.797 0-2.157 1.634-3.799 4.134-3.799 2.5 0 4.037 1.642 4.085 3.799 0 2.109-1.586 3.797-4.134 3.797zm29.999 24.983h-7.306v-11.76c0-2.955-1.058-4.97-3.701-4.97-2.019 0-3.22 1.359-3.749 2.671-.193.47-.24 1.126-.24 1.783v12.276h-7.306s.095-19.92 0-21.982h7.306v3.113c.97-1.498 2.708-3.629 6.584-3.629 4.807 0 8.412 3.142 8.412 9.894v12.604z" fill="#fff"/></symbol><symbol id="icon-inst" viewBox="0 0 60 60"><path d="M35.742 30a5.742 5.742 0 11-11.484 0 5.742 5.742 0 0111.484 0z" fill="#fff"/><path d="M43.429 19.84a5.337 5.337 0 00-1.289-1.98 5.333 5.333 0 00-1.98-1.289c-.607-.236-1.52-.516-3.199-.593-1.817-.082-2.361-.1-6.961-.1s-5.145.017-6.961.1c-1.68.077-2.592.357-3.199.593a5.33 5.33 0 00-1.98 1.289 5.34 5.34 0 00-1.29 1.98c-.235.608-.516 1.52-.592 3.2-.083 1.816-.101 2.36-.101 6.96s.018 5.145.1 6.962c.077 1.68.358 2.591.593 3.198a5.34 5.34 0 001.29 1.981 5.335 5.335 0 001.98 1.289c.607.236 1.52.516 3.199.593 1.816.083 2.36.1 6.96.1s5.146-.017 6.962-.1c1.68-.077 2.592-.357 3.199-.593a5.705 5.705 0 003.269-3.27c.236-.607.516-1.519.593-3.198.083-1.817.1-2.362.1-6.961 0-4.6-.017-5.145-.1-6.962-.076-1.68-.357-2.591-.593-3.199zm-13.43 19.006a8.846 8.846 0 110-17.692 8.846 8.846 0 110 17.692zm9.196-15.974a2.067 2.067 0 110-4.135 2.067 2.067 0 010 4.135z" fill="#fff"/><path d="M30 0C13.434 0 0 13.434 0 30c0 16.566 13.434 30 30 30 16.566 0 30-13.434 30-30C60 13.434 46.566 0 30 0zm17.123 37.102c-.084 1.834-.375 3.086-.801 4.182a8.808 8.808 0 01-5.038 5.038c-1.096.426-2.348.717-4.181.8-1.837.084-2.424.105-7.103.105-4.678 0-5.265-.02-7.102-.104-1.834-.084-3.086-.375-4.181-.801a8.44 8.44 0 01-3.052-1.987 8.445 8.445 0 01-1.987-3.051c-.425-1.096-.717-2.348-.8-4.181-.085-1.838-.105-2.425-.105-7.103s.02-5.265.104-7.102c.084-1.834.375-3.086.8-4.182a8.44 8.44 0 011.988-3.05 8.44 8.44 0 013.051-1.988c1.096-.426 2.348-.717 4.182-.8 1.837-.084 2.424-.105 7.102-.105 4.678 0 5.265.02 7.102.105 1.834.083 3.086.374 4.182.8a8.445 8.445 0 013.051 1.987 8.44 8.44 0 011.987 3.051c.426 1.096.717 2.348.801 4.182.084 1.837.104 2.424.104 7.102 0 4.678-.02 5.265-.104 7.102z" fill="#fff"/></symbol><symbol id="icon-js"><path d="M175 87.5c0 11.4-2.179 22.289-6.147 32.279a86.95 86.95 0 01-7.839 15.192 87.633 87.633 0 01-13.518 16.218 87.554 87.554 0 01-9.582 7.836C123.664 169.089 106.275 175 87.5 175c-18.775 0-36.164-5.911-50.414-15.975a87.448 87.448 0 01-11.804-10.004C9.65 133.218 0 111.482 0 87.5s9.65-45.718 25.282-61.521a87.69 87.69 0 0112.554-10.525C51.943 5.707 69.053 0 87.5 0s35.557 5.707 49.664 15.454a86.74 86.74 0 019.772 7.835 87.62 87.62 0 0114.078 16.74 87.042 87.042 0 017.84 15.192C172.821 65.211 175 76.101 175 87.5z" fill="#FFDA45"/><path d="M133.66 79.628c-2.436-7.063-12.422-7.063-14.37-1.217-1.948 5.845 4.628 9.254 14.857 12.664s16.561 12.421 15.344 20.458c-1.218 8.037-4.628 18.51-24.842 18.51-12.634 0-19.655-7.897-23.145-13.819l11.454-6.883s3.897 8.281 11.203 8.281c7.307 0 10.229-2.435 10.229-8.037 0-6.819-23.624-9.255-27.277-20.945-3.653-11.69 1.218-28.252 18.266-27.034 10.655.761 16.649 5.993 19.646 9.81l-11.365 8.212zM80.566 62.824v46.761c0 5.602-4.87 8.525-9.742 7.55-4.87-.974-7.063-6.819-7.063-6.819l-11.203 7.55s2.436 11.203 17.78 12.177c15.343.975 24.11-8.28 24.11-16.074V62.824H80.566z" fill="#309"/><path d="M25.282 15.454V149.02a87.521 87.521 0 0011.804 10.004h100.828a87.66 87.66 0 009.583-7.836H33.117v-127.9h127.897v111.683a86.995 86.995 0 007.839-15.193V15.454H25.282z" fill="#309"/><path d="M30.029 129.8c7.666 0 13.882-6.215 13.882-13.882s-6.216-13.882-13.882-13.882c-7.667 0-13.883 6.215-13.883 13.882S22.363 129.8 30.03 129.8z" fill="#3F4A43"/></symbol><symbol id="icon-laptop"><path d="M87.5 175c48.325 0 87.5-39.175 87.5-87.5S135.825 0 87.5 0 0 39.175 0 87.5 39.175 175 87.5 175z" fill="#FFDA45"/><path d="M70.998 112.383h33.018v14.629H70.998v-14.629z" fill="#2F4859"/><path d="M131.66 46.101H43.34a3.39 3.39 0 00-3.39 3.39v62.645a3.39 3.39 0 003.39 3.391h88.32a3.39 3.39 0 003.391-3.391V49.492a3.39 3.39 0 00-3.391-3.39z" fill="#3A556A"/><path d="M45.773 51.926h83.454v51.939H45.773v-51.94z" fill="#309"/><path d="M110.25 125.111h-45.5a1.902 1.902 0 00-1.239 3.179c.323.351.765.568 1.24.608h45.499a1.897 1.897 0 001.739-1.893 1.902 1.902 0 00-1.739-1.894z" fill="#3A556A"/><path d="M87.5 106.969a2.73 2.73 0 00-2.526 1.688 2.734 2.734 0 102.526-1.688z" fill="#2F4859"/><path d="M64.135 64.586h-.807v-5.154c-.235.213-.492.4-.766.56a4.809 4.809 0 01-.861.41v-.779a4.795 4.795 0 001.19-.765c.29-.248.535-.544.724-.875h.52v6.603zm3.568-3.254a6.327 6.327 0 01.233-1.873c.129-.424.375-.803.71-1.094.345-.264.77-.4 1.204-.382.321-.005.64.065.93.205.262.152.486.363.656.615.184.306.322.638.41.984.105.508.15 1.027.136 1.545a5.906 5.906 0 01-.232 1.873 2.18 2.18 0 01-.656 1.053c-.337.27-.758.41-1.19.396a1.833 1.833 0 01-1.504-.683 4.402 4.402 0 01-.697-2.639zm.834 0c-.068.74.059 1.485.37 2.16a1.12 1.12 0 00.943.533 1.107 1.107 0 00.93-.533 4.101 4.101 0 00.382-2.16 4.005 4.005 0 00-.383-2.146 1.094 1.094 0 00-1.45-.423 1.04 1.04 0 00-.382.354 4.198 4.198 0 00-.41 2.215zm9.393 3.254h-.807v-5.154c-.236.212-.492.4-.766.56-.27.162-.553.3-.847.41v-.779a4.716 4.716 0 001.175-.766c.29-.247.536-.543.725-.875h.52v6.604zm6.972 0h-.806v-5.154c-.233.215-.49.404-.766.56a4.722 4.722 0 01-.848.41v-.779a4.797 4.797 0 001.19-.766c.29-.243.532-.54.71-.875h.52v6.604zm3.568-3.254a5.866 5.866 0 01.247-1.873c.129-.424.375-.803.71-1.094.339-.265.76-.4 1.19-.382.322-.009.641.062.93.205.269.148.499.36.67.615.18.307.313.638.396.984.118.506.168 1.026.15 1.545a6.33 6.33 0 01-.232 1.873 2.283 2.283 0 01-.71 1.094 1.996 1.996 0 01-2.735-.287 4.307 4.307 0 01-.615-2.68zm.835 0a4.102 4.102 0 00.382 2.16 1.108 1.108 0 00.93.533 1.147 1.147 0 00.944-.533 4.197 4.197 0 00.382-2.16 4.101 4.101 0 00-.341-2.146 1.121 1.121 0 00-.944-.547 1.04 1.04 0 00-.889.478c-.36.68-.52 1.448-.464 2.215zm9.461 3.254h-.82v-5.154a3.73 3.73 0 01-.766.56 4.722 4.722 0 01-.848.41v-.779a4.795 4.795 0 001.19-.766c.29-.243.531-.54.71-.875h.534v6.604zm3.568-3.254a5.891 5.891 0 01.205-1.873c.129-.424.375-.803.711-1.094a1.817 1.817 0 011.203-.383 1.97 1.97 0 01.916.206c.269.148.499.36.67.615.179.309.317.64.41.984.105.508.151 1.026.137 1.545a5.901 5.901 0 01-.233 1.873 2.274 2.274 0 01-.711 1.094c-.336.27-.758.41-1.189.396a1.83 1.83 0 01-1.504-.683 4.324 4.324 0 01-.615-2.68zm.82 0a4.197 4.197 0 00.383 2.16 1.092 1.092 0 001.873 0 4.197 4.197 0 00.383-2.16 4.105 4.105 0 00-.383-2.146 1.125 1.125 0 00-.943-.547 1.042 1.042 0 00-.889.478 4.1 4.1 0 00-.424 2.215zm9.461 3.254h-.807v-5.154c-.235.212-.491.4-.765.56a4.812 4.812 0 01-.861.41v-.779a4.806 4.806 0 001.189-.766c.29-.247.535-.543.725-.875h.519v6.604zm-48.48 11.02h-.807v-5.141a4.631 4.631 0 01-.766.547 4.96 4.96 0 01-.861.424v-.78c.43-.205.83-.467 1.19-.779.293-.245.538-.541.724-.875h.52v6.604zm3.664-3.241a6.428 6.428 0 01.232-1.886 2.45 2.45 0 01.725-1.094c.338-.265.76-.401 1.19-.383a1.87 1.87 0 01.929.219c.268.145.494.357.656.615a3 3 0 01.41.97 6.6 6.6 0 01.15 1.56 5.767 5.767 0 01-.245 1.859 2.3 2.3 0 01-.711 1.107 2.01 2.01 0 01-2.735-.3 4.389 4.389 0 01-.601-2.667zm.834 0a4.17 4.17 0 00.369 2.147 1.12 1.12 0 00.943.547 1.094 1.094 0 00.93-.547c.324-.666.456-1.41.383-2.147a4.101 4.101 0 00-.383-2.16 1.108 1.108 0 00-.943-.533 1.025 1.025 0 00-.889.465 4.294 4.294 0 00-.41 2.228zm6.193 0a6 6 0 01.233-1.886 2.42 2.42 0 01.71-1.094c.339-.265.76-.401 1.19-.383.324-.01.645.065.93.219.275.14.507.353.67.615.182.3.316.628.396.97a5.97 5.97 0 01.15 1.56 6.236 6.236 0 01-.232 1.859 2.393 2.393 0 01-.71 1.107c-.343.267-.77.403-1.204.383a1.792 1.792 0 01-1.49-.684 4.293 4.293 0 01-.643-2.666zm.82 0a4.102 4.102 0 00.383 2.147 1.095 1.095 0 00.93.547 1.106 1.106 0 00.943-.547 4.1 4.1 0 00.383-2.147 4.197 4.197 0 00-.355-2.16 1.148 1.148 0 00-.944-.533 1.025 1.025 0 00-.888.465 4.102 4.102 0 00-.451 2.228zm6.194 0a5.948 5.948 0 01.191-1.886 2.42 2.42 0 01.711-1.094c.338-.265.76-.401 1.19-.383.323-.01.644.065.93.219.273.137.501.35.656.615.192.297.331.626.41.97.13.51.198 1.034.205 1.56a6.232 6.232 0 01-.233 1.859 2.393 2.393 0 01-.71 1.107c-.344.265-.77.4-1.204.383a1.765 1.765 0 01-1.49-.684 4.293 4.293 0 01-.656-2.666zm.834 0c-.074.738.059 1.48.383 2.147a1.095 1.095 0 00.93.547 1.12 1.12 0 00.943-.547 4.17 4.17 0 00.369-2.147 4.24 4.24 0 00-.37-2.16 1.15 1.15 0 00-.956-.533.999.999 0 00-.875.465 4.1 4.1 0 00-.424 2.228zm9.543 3.241h-.807v-5.141a3.707 3.707 0 01-.766.547c-.268.168-.552.31-.847.424v-.78c.43-.205.83-.467 1.19-.779a2.8 2.8 0 00.71-.875h.52v6.604zm3.677-3.241a6.425 6.425 0 01.233-1.886 2.42 2.42 0 01.71-1.094c.344-.265.77-.4 1.204-.383.32-.009.635.067.916.219.275.14.507.353.67.615.181.303.32.63.41.97a6.74 6.74 0 01.137 1.56 5.825 5.825 0 01-.233 1.859 2.392 2.392 0 01-.71 1.107 2.01 2.01 0 01-2.735-.3 4.293 4.293 0 01-.602-2.667zm.82 0a4.101 4.101 0 00.356 2.147 1.107 1.107 0 00.944.547 1.094 1.094 0 00.93-.547 4.1 4.1 0 00.382-2.147 4.196 4.196 0 00-.383-2.16 1.12 1.12 0 00-.916-.478 1.025 1.025 0 00-.889.465 4.265 4.265 0 00-.423 2.173zm6.194 0a5.933 5.933 0 01.246-1.886 2.41 2.41 0 01.711-1.094c.338-.265.76-.401 1.189-.383.324-.01.645.065.93.219.274.137.502.35.656.615.193.297.332.626.411.97.118.511.168 1.035.15 1.56a6.245 6.245 0 01-.232 1.859 2.401 2.401 0 01-.711 1.107c-.344.265-.77.4-1.204.383a1.765 1.765 0 01-1.49-.684 4.297 4.297 0 01-.656-2.666zm.834 0c-.073.738.059 1.48.383 2.147a1.09 1.09 0 00.929.547 1.121 1.121 0 00.944-.547c.311-.67.438-1.411.369-2.147a4.246 4.246 0 00-.369-2.16 1.144 1.144 0 00-.944-.533 1.008 1.008 0 00-.888.465 4.102 4.102 0 00-.424 2.228zm9.557 3.241h-.82v-5.141a3.72 3.72 0 01-.766.547c-.268.168-.552.31-.848.424v-.78c.43-.205.83-.467 1.19-.779a2.83 2.83 0 00.711-.875h.533v6.604zM64.135 86.639h-.807v-5.154a4.63 4.63 0 01-.766.56 4.81 4.81 0 01-.861.41v-.78a4.801 4.801 0 001.19-.765 3.31 3.31 0 00.724-.875h.52v6.604zm3.568-3.24a6.33 6.33 0 01.232-1.873 2.35 2.35 0 01.711-1.094c.344-.264.77-.4 1.203-.383.322-.005.64.065.93.205.268.145.495.357.656.615.187.305.326.637.41.985a6.7 6.7 0 01.137 1.545 5.904 5.904 0 01-.232 1.873 2.256 2.256 0 01-.711 1.093c-.337.27-.758.411-1.19.397a1.833 1.833 0 01-1.49-.629 4.403 4.403 0 01-.656-2.734zm.834 0a4.24 4.24 0 00.37 2.16 1.12 1.12 0 00.942.533 1.108 1.108 0 00.93-.533 6.289 6.289 0 000-4.32 1.108 1.108 0 00-.943-.534 1.04 1.04 0 00-.889.479 4.197 4.197 0 00-.41 2.215zm9.393 3.24h-.807v-5.154c-.236.212-.492.4-.766.56-.27.162-.553.3-.847.41v-.78a4.719 4.719 0 001.175-.765 3.31 3.31 0 00.725-.875h.52v6.604zm3.623-3.241a6.333 6.333 0 01.232-1.873 2.37 2.37 0 01.725-1.093c.338-.266.76-.401 1.19-.383.32-.007.64.064.929.205.268.145.494.357.656.615.193.302.332.635.41.984.111.508.162 1.026.15 1.545a5.866 5.866 0 01-.245 1.874 2.255 2.255 0 01-.712 1.093c-.336.27-.758.411-1.189.397a1.79 1.79 0 01-1.49-.684 4.307 4.307 0 01-.656-2.68zm.834 0c-.069.74.058 1.485.369 2.16a1.15 1.15 0 00.943.534 1.108 1.108 0 00.93-.533 6.289 6.289 0 000-4.32 1.107 1.107 0 00-.944-.534 1.04 1.04 0 00-.888.479 4.197 4.197 0 00-.41 2.214zm9.447 3.241h-.807v-5.154a4.103 4.103 0 01-.793.546c-.27.162-.553.3-.847.41v-.779c.43-.192.826-.45 1.175-.765.294-.244.54-.541.725-.875h.52l.027 6.617zm3.568-3.241a5.867 5.867 0 01.301-1.886c.124-.427.371-.807.71-1.094.34-.265.761-.4 1.19-.383.322-.006.64.064.93.205.268.145.494.357.656.616.193.301.332.634.41.984.094.514.126 1.037.096 1.558a5.865 5.865 0 01-.246 1.874 2.256 2.256 0 01-.71 1.093c-.337.27-.76.411-1.19.397a1.79 1.79 0 01-1.49-.684 4.306 4.306 0 01-.657-2.68zm.834 0c-.07.742.062 1.489.383 2.16a1.08 1.08 0 001.86 0 6.289 6.289 0 000-4.32 1.107 1.107 0 00-.944-.533 1.04 1.04 0 00-.889.479 4.197 4.197 0 00-.41 2.215zm9.448 3.241h-.807v-5.154a4.17 4.17 0 01-.766.56 5.2 5.2 0 01-.847.41v-.78a4.793 4.793 0 001.189-.765c.287-.247.527-.544.711-.875h.52v6.604zm6.931 0h-.807v-5.154c-.235.212-.491.4-.765.56a4.812 4.812 0 01-.861.41v-.78a4.811 4.811 0 001.189-.765c.29-.247.535-.543.725-.875h.519v6.604zm-48.48 11.019h-.807v-5.14a4.637 4.637 0 01-.766.547 4.96 4.96 0 01-.861.423v-.779c.43-.205.83-.467 1.19-.78.293-.244.538-.54.724-.874h.52v6.603zm3.664-3.24a6.429 6.429 0 01.232-1.887 2.45 2.45 0 01.725-1.094c.338-.265.76-.4 1.19-.382.323-.01.643.066.929.218.268.145.494.357.656.616.193.297.332.625.41.97.112.512.162 1.035.15 1.559a5.767 5.767 0 01-.245 1.86 2.3 2.3 0 01-.711 1.107 2.01 2.01 0 01-2.735-.301 4.389 4.389 0 01-.601-2.666zm.834 0a4.17 4.17 0 00.369 2.146 1.121 1.121 0 00.943.547 1.094 1.094 0 00.93-.547 4.003 4.003 0 00.383-2.146 4.101 4.101 0 00-.383-2.16 1.108 1.108 0 00-.943-.533 1.025 1.025 0 00-.889.464 4.294 4.294 0 00-.41 2.229zm6.193 0a6.001 6.001 0 01.232-1.887 2.42 2.42 0 01.711-1.094c.339-.265.76-.4 1.19-.382.324-.011.644.064.93.218.275.14.506.353.67.616.182.3.316.628.396.97.118.511.169 1.035.15 1.559a6.232 6.232 0 01-.232 1.86 2.393 2.393 0 01-.711 1.107c-.343.267-.77.403-1.203.382a1.791 1.791 0 01-1.49-.697 4.293 4.293 0 01-.643-2.652zm.82 0a4.101 4.101 0 00.383 2.146 1.094 1.094 0 00.93.547 1.106 1.106 0 00.943-.547c.32-.667.451-1.41.383-2.146a4.198 4.198 0 00-.355-2.16 1.15 1.15 0 00-.944-.533 1.025 1.025 0 00-.889.464 4.102 4.102 0 00-.45 2.229zm9.557 3.24h-.806v-5.14a4.637 4.637 0 01-.766.547 4.96 4.96 0 01-.862.423v-.779a4.974 4.974 0 001.19-.78 3.1 3.1 0 00.725-.874h.52v6.603zm3.664-3.24a5.948 5.948 0 01.246-1.887c.127-.425.374-.805.711-1.094.338-.265.76-.4 1.19-.382.323-.01.643.066.93.218.267.145.494.357.656.616.192.297.331.625.41.97.111.512.161 1.035.15 1.559a5.767 5.767 0 01-.191 1.86 2.3 2.3 0 01-.711 1.107c-.339.265-.76.4-1.19.382a1.75 1.75 0 01-1.49-.683 4.292 4.292 0 01-.71-2.666zm.834 0a4.17 4.17 0 00.37 2.146 1.121 1.121 0 00.942.547 1.094 1.094 0 00.93-.547 4.003 4.003 0 00.383-2.146 4.101 4.101 0 00-.383-2.16 1.108 1.108 0 00-.943-.533 1.025 1.025 0 00-.889.464 4.294 4.294 0 00-.41 2.229zm6.193 0a6.425 6.425 0 01.233-1.887 2.42 2.42 0 01.71-1.094c.344-.265.77-.4 1.204-.382.32-.01.635.066.916.218.275.14.507.353.67.615.181.303.32.63.41.971a6.74 6.74 0 01.137 1.559 5.825 5.825 0 01-.233 1.86 2.392 2.392 0 01-.71 1.107 2.01 2.01 0 01-2.735-.301 4.293 4.293 0 01-.602-2.666zm.82 0a4.101 4.101 0 00.356 2.146 1.107 1.107 0 00.944.547 1.094 1.094 0 00.93-.547 4.1 4.1 0 00.382-2.146 4.196 4.196 0 00-.383-2.16 1.12 1.12 0 00-1.448-.417 1.025 1.025 0 00-.384.348 4.266 4.266 0 00-.396 2.229zm6.194 0a5.934 5.934 0 01.246-1.887c.132-.423.378-.801.711-1.094.338-.265.76-.4 1.189-.382.324-.011.645.064.93.218.274.137.502.351.656.616.193.297.332.625.411.97.118.51.168 1.035.15 1.559a6.245 6.245 0 01-.232 1.86 2.401 2.401 0 01-.711 1.107c-.344.265-.77.4-1.204.382a1.765 1.765 0 01-1.49-.683 4.297 4.297 0 01-.656-2.666zm.834 0c-.073.737.059 1.48.383 2.146a1.09 1.09 0 00.929.547 1.121 1.121 0 00.944-.547 4.17 4.17 0 00.369-2.146 4.246 4.246 0 00-.369-2.16 1.145 1.145 0 00-.944-.533 1.007 1.007 0 00-.888.464 4.102 4.102 0 00-.424 2.229zm9.557 3.24h-.82v-5.14a3.72 3.72 0 01-.766.547c-.268.168-.552.31-.848.423v-.779c.43-.205.83-.467 1.19-.78a2.83 2.83 0 00.711-.874h.533v6.603z" fill="#E1E6E9"/><path d="M88.47 64.777a13.125 13.125 0 1013.126 13.125 13.126 13.126 0 00-3.84-9.285 13.114 13.114 0 00-9.285-3.84z" fill="#FFDA45"/><path d="M87.5 82.988l-4.772-4.771 1.942-1.928 2.83 2.83 5.947-5.947 1.941 1.928-7.888 7.888z" fill="#309"/></symbol><symbol id="icon-medal"><g clip-path="url(#clip0)" fill="#FFDA45"><path d="M56.097 59.57l3.887-6.307L67 50.87l.777-7.368 5.277-5.195-2.509-6.974 2.51-6.974-5.278-5.195L67 11.797l-7.015-2.393-3.887-6.307-7.352.888L42.5 0l-6.245 3.986-7.352-.888-3.887 6.308L18 11.798l-.777 7.367-5.277 5.195 2.509 6.974-2.51 6.974 5.278 5.195.777 7.368 7.015 2.392 3.887 6.307 7.352-.887 6.245 3.986 6.245-3.986 7.352.887zM21.013 31.334c0-11.848 9.639-21.487 21.487-21.487 11.848 0 21.487 9.64 21.487 21.487 0 11.848-9.639 21.488-21.487 21.488-11.848 0-21.487-9.64-21.487-21.488z"/><path d="M42.5 14.83c-9.1 0-16.504 7.404-16.504 16.504 0 9.1 7.404 16.504 16.504 16.504 9.1 0 16.504-7.404 16.504-16.504 0-9.1-7.404-16.503-16.504-16.503zm-7.42 49.014L26.332 64.9l-4.62-7.498-1.571-.536-6.776 21.178 12.198-.67L35.108 85l5.616-17.553-5.645-3.603zm28.208-6.442L58.667 64.9l-8.746-1.056-5.644 3.603L49.893 85l9.543-7.627 12.198.671-6.776-21.178-1.57.536z"/></g></symbol><symbol id="icon-menu"><path stroke="#309" stroke-width="3" d="M0 1.5h23M0 9.679h23M0 16.835h23"/></symbol><symbol id="icon-pig"><path d="M62.588 2.656c-12.358 0-22.412 10.054-22.412 22.412 0 12.359 10.054 22.412 22.412 22.412C74.946 47.48 85 37.427 85 25.069 85 12.71 74.946 2.656 62.588 2.656zm0 34.864a7.461 7.461 0 01-6.883-4.563l4.587-1.94a2.49 2.49 0 102.296-3.458c-4.119 0-7.47-3.352-7.47-7.471s3.351-7.47 7.47-7.47a7.461 7.461 0 016.883 4.561l-4.587 1.941a2.489 2.489 0 00-2.296-1.522 2.493 2.493 0 00-2.49 2.49 2.493 2.493 0 002.49 2.49c4.119 0 7.47 3.352 7.47 7.47 0 4.12-3.351 7.472-7.47 7.472z" fill="#FFDA45"/><path d="M74.714 49.629a27.228 27.228 0 01-12.126 2.832c-14.264 0-26.018-10.96-27.282-24.902H30.05c-3.498 0-6.855.708-10.003 2.11a17.27 17.27 0 00-8.237-2.11H4.182L8.445 40.35a25.665 25.665 0 00-1.11 2.15H0v19.922h7.32a24.975 24.975 0 009.242 10.87 7.687 7.687 0 013.526 6.475v2.577h14.941v-4.98h14.942v4.98h14.941v-2.49c0-4.168 1.474-8.222 4.152-11.416a24.83 24.83 0 005.65-18.81zM25.068 47.48h-4.98V42.5h4.98v4.98z" fill="#FFDA45"/></symbol><symbol id="icon-question"><path d="M87.5 0C39.25 0 0 39.25 0 87.5 0 135.749 39.25 175 87.5 175c48.249 0 87.5-39.251 87.5-87.5C175 39.25 135.749 0 87.5 0z" fill="#FFDA45"/><path d="M94.791 131.25a7.29 7.29 0 11-14.582 0 7.291 7.291 0 0114.582 0zm4.251-39.069a7.324 7.324 0 00-4.25 6.63v3.273a7.29 7.29 0 01-7.292 7.291 7.29 7.29 0 01-7.291-7.291V98.81c0-8.51 5.001-16.311 12.724-19.878 7.43-3.419 12.796-12.498 12.796-16.953 0-10.047-8.174-18.229-18.229-18.229s-18.229 8.182-18.229 18.229a7.291 7.291 0 01-7.292 7.292 7.29 7.29 0 01-7.291-7.292c0-18.09 14.72-32.813 32.812-32.813 18.091 0 32.812 14.723 32.812 32.813 0 9.852-8.546 24.333-21.27 30.202z" fill="#309"/></symbol><symbol id="icon-react"><path d="M175 87.5c0 28.829-13.943 54.4-35.45 70.343A87.148 87.148 0 0187.5 175a87.556 87.556 0 01-21.536-2.671 87.086 87.086 0 01-30.518-14.49C13.94 141.896 0 116.325 0 87.5 0 39.175 39.175 0 87.5 0S175 39.175 175 87.5z" fill="#FFDA45"/><path d="M139.639 136.768c-.41-2.754-.953-5.589-1.625-8.489a135.075 135.075 0 00-2.064-7.779c-2.057-6.921-4.767-14.114-8.053-21.385a207.724 207.724 0 00-9.254-17.982 202.694 202.694 0 00-4.989-8.204 196.728 196.728 0 00-5.957-8.797c-4.65-6.482-9.525-12.428-14.493-17.671a129.05 129.05 0 00-5.704-5.672 106.427 106.427 0 00-6.543-5.657c-14.246-11.31-27-14.707-35.917-9.56-8.918 5.15-12.354 17.892-9.682 35.889.407 2.753.953 5.59 1.628 8.49a126.705 126.705 0 002.06 7.778c2.058 6.921 4.769 14.118 8.058 21.385a196.578 196.578 0 004.64 9.557 211.921 211.921 0 004.61 8.425c1.614 2.8 3.279 5.536 4.99 8.204a200.56 200.56 0 005.956 8.8c4.65 6.482 9.525 12.425 14.493 17.667a128.991 128.991 0 005.707 5.675 107.176 107.176 0 006.54 5.654c5.239 4.161 10.275 7.25 14.992 9.232a87.122 87.122 0 0030.518-14.486c1.257-5.792 1.303-12.888.089-21.074zm-8.021 19.775c-1.04 4.493-2.95 7.571-5.682 9.146-2.729 1.579-6.35 1.693-10.761.35-4.779-1.46-10.357-4.653-16.136-9.242a101.256 101.256 0 01-5.835-5.026 122.812 122.812 0 01-5.707-5.668c-3.25-3.439-6.465-7.203-9.6-11.242a180.913 180.913 0 01-6.165-8.44 198.609 198.609 0 01-8.414-13.346 198.182 198.182 0 01-7.35-13.96 177.676 177.676 0 01-4.225-9.558c-1.932-4.735-3.586-9.403-4.94-13.936a121.609 121.609 0 01-2.05-7.774 98.937 98.937 0 01-1.439-7.568c-1.085-7.296-1.06-13.725.064-18.593 1.04-4.493 2.954-7.571 5.682-9.146 1.475-.85 3.207-1.279 5.182-1.279 1.686 0 3.55.31 5.579.932 4.779 1.457 10.357 4.654 16.135 9.24a97.626 97.626 0 015.836 5.032c1.91 1.768 3.815 3.66 5.704 5.66 3.253 3.44 6.468 7.204 9.607 11.247a180.464 180.464 0 016.164 8.44 200.481 200.481 0 018.411 13.342 198.394 198.394 0 017.35 13.96 180.033 180.033 0 014.225 9.562c1.932 4.735 3.586 9.4 4.939 13.932a123.993 123.993 0 012.054 7.774 101.293 101.293 0 011.436 7.568c1.086 7.297 1.061 13.725-.064 18.593z" fill="#309"/><path d="M146.179 72.79a109.883 109.883 0 00-8.168-2.84c-2.5-.76-5.093-1.464-7.768-2.103-7.022-1.679-14.607-2.929-22.547-3.715a194.19 194.19 0 00-10.593-.76 208.098 208.098 0 00-19.21 0c-3.59.16-7.129.417-10.597.76-7.939.786-15.521 2.036-22.543 3.715a133.016 133.016 0 00-7.767 2.103c-2.85.868-5.579 1.818-8.168 2.84C11.9 79.467 2.578 88.817 2.578 99.113s9.322 19.647 26.24 26.329a110.08 110.08 0 008.164 2.839c2.5.761 5.093 1.464 7.768 2.1 7.022 1.682 14.607 2.929 22.55 3.718 3.468.343 7.007.596 10.597.761 3.164.146 6.371.217 9.603.217a208.4 208.4 0 009.6-.217c3.589-.165 7.125-.418 10.596-.761 7.94-.786 15.529-2.036 22.55-3.718a129.757 129.757 0 007.768-2.103 108.674 108.674 0 008.165-2.836c16.921-6.682 26.239-16.032 26.239-26.329 0-10.296-9.318-19.646-26.239-26.325zm13.114 35.817c-3.65 3.411-9.207 6.643-16.068 9.353a99.74 99.74 0 01-7.275 2.54c-2.49.768-5.079 1.471-7.757 2.107-4.604 1.096-9.472 1.996-14.54 2.693-3.378.468-6.846.843-10.386 1.118-5.132.411-10.407.618-15.767.618-5.361 0-10.636-.207-15.768-.614-3.54-.279-7.01-.654-10.39-1.122-5.067-.696-9.935-1.596-14.539-2.693a121.683 121.683 0 01-7.757-2.107 100.074 100.074 0 01-7.275-2.539c-6.86-2.711-12.418-5.943-16.068-9.354-3.371-3.146-5.082-6.339-5.082-9.493 0-3.153 1.71-6.346 5.082-9.492 3.65-3.411 9.207-6.643 16.068-9.354 2.31-.91 4.74-1.76 7.275-2.54a121.55 121.55 0 017.757-2.106c4.604-1.097 9.472-1.997 14.54-2.693 3.378-.468 6.85-.843 10.389-1.122a199.722 199.722 0 0115.768-.614c5.36 0 10.635.207 15.767.618 3.54.275 7.008.65 10.386 1.118 5.068.697 9.936 1.597 14.54 2.693 2.678.636 5.267 1.34 7.757 2.107a99.79 99.79 0 017.275 2.54c6.86 2.71 12.418 5.942 16.068 9.353 3.371 3.147 5.082 6.34 5.082 9.493 0 3.153-1.711 6.346-5.082 9.492z" fill="#309"/><path d="M129.957 25.572c-8.918-5.147-21.671-1.75-35.918 9.56A107.492 107.492 0 0087.5 40.79a129.153 129.153 0 00-5.707 5.675c-4.968 5.243-9.843 11.186-14.496 17.668a199.033 199.033 0 00-5.954 8.796 203.38 203.38 0 00-4.989 8.204 212.73 212.73 0 00-4.61 8.425 198.063 198.063 0 00-4.64 9.557c-3.29 7.271-6 14.464-8.057 21.385a130.537 130.537 0 00-2.065 7.782 107.433 107.433 0 00-1.624 8.486c-1.215 8.183-1.168 15.279.089 21.072a87.082 87.082 0 0030.518 14.489c4.718-1.982 9.753-5.071 14.993-9.232a107.364 107.364 0 006.543-5.654 129.257 129.257 0 005.703-5.671c4.965-5.243 9.843-11.19 14.493-17.672a199.699 199.699 0 005.957-8.8 203.346 203.346 0 004.99-8.203 206.258 206.258 0 004.61-8.422 199.448 199.448 0 004.643-9.56c3.286-7.268 5.997-14.465 8.054-21.386a131.83 131.83 0 002.06-7.779 107.09 107.09 0 001.629-8.489c2.671-17.996-.765-30.739-9.683-35.889zm-1.764 50.05c-1.354 4.532-3.007 9.196-4.939 13.931a179.82 179.82 0 01-4.225 9.561 198.308 198.308 0 01-7.35 13.961 201.546 201.546 0 01-8.411 13.343 181.752 181.752 0 01-6.168 8.442c-3.135 4.04-6.35 7.804-9.603 11.243-1.89 2-3.793 3.893-5.704 5.664a98.833 98.833 0 01-5.836 5.029c-5.778 4.589-11.357 7.782-16.135 9.243-4.41 1.343-8.032 1.228-10.76-.35-2.73-1.575-4.644-4.654-5.683-9.147-1.125-4.868-1.15-11.296-.064-18.592a100.64 100.64 0 011.436-7.568 124.053 124.053 0 012.053-7.775c1.353-4.532 3.007-9.2 4.94-13.936a178.19 178.19 0 014.224-9.557 198.268 198.268 0 017.35-13.96 198.763 198.763 0 018.415-13.347 178.932 178.932 0 016.16-8.436c3.14-4.042 6.354-7.806 9.604-11.246 1.892-2.004 3.8-3.897 5.707-5.664a99.986 99.986 0 015.835-5.029c5.779-4.585 11.358-7.782 16.136-9.24 2.029-.62 3.893-.931 5.578-.931 1.975 0 3.711.428 5.182 1.278 2.732 1.575 4.643 4.654 5.682 9.147 1.125 4.868 1.151 11.296.065 18.593a99.288 99.288 0 01-1.44 7.567 121.382 121.382 0 01-2.049 7.775z" fill="#309"/><path d="M87.5 115.075c8.815 0 15.961-7.146 15.961-15.96 0-8.816-7.146-15.961-15.961-15.961-8.815 0-15.96 7.145-15.96 15.96 0 8.815 7.145 15.961 15.96 15.961z" fill="#309"/></symbol></svg>