<svg xmlns="http://www.w3.org/2000/svg" xmlns:xlink="http://www.w3.org/1999/xlink"><defs>
<clipPath id="clip0">
<rect width="52" height="52" fill="white"/>
</clipPath>
</defs><symbol id="icon-menu" viewBox="0 0 23 18">
<line y1="1.5" x2="23" y2="1.5" stroke="white" stroke-width="3"/>
<line y1="9.5" x2="23" y2="9.5" stroke="white" stroke-width="3"/>
<line y1="16.5" x2="23" y2="16.5" stroke="white" stroke-width="3"/>
</symbol><symbol id="icon-pin" viewBox="0 0 16 22">
<path d="M14.5131 3.76739C13.1779 1.46324 10.8064 0.0555371 8.16918 0.00174023C8.0566 -0.000580078 7.94329 -0.000580078 7.83067 0.00174023C5.19351 0.0555371 2.82198 1.46324 1.48677 3.76739C0.121994 6.1226 0.0846544 8.95166 1.38687 11.3352L6.84231 21.3206C6.84476 21.325 6.8472 21.3294 6.84974 21.3338C7.08976 21.751 7.51975 22 8.00001 22C8.48023 22 8.91022 21.7509 9.1502 21.3338C9.15273 21.3294 9.15518 21.325 9.15763 21.3206L14.6131 11.3352C15.9152 8.95166 15.8779 6.1226 14.5131 3.76739ZM7.99993 9.96877C6.29402 9.96877 4.90618 8.58092 4.90618 6.87502C4.90618 5.16912 6.29402 3.78127 7.99993 3.78127C9.70583 3.78127 11.0937 5.16912 11.0937 6.87502C11.0937 8.58092 9.70587 9.96877 7.99993 9.96877Z" fill="#E1E6E9"/>
</symbol><symbol id="icon-tm" viewBox="0 0 52 52">
<g clip-path="url(#clip0)">
<path d="M20.4034 32.892L19.5432 44.9907C20.7739 44.9907 21.3069 44.462 21.9461 43.8272L27.7159 38.313L39.6716 47.0685C41.8642 48.2905 43.4091 47.647 44.0006 45.0513L51.8482 8.27865L51.8504 8.27649C52.5459 5.03515 50.6782 3.76765 48.5419 4.56282L2.41356 22.2233C-0.734603 23.4453 -0.686936 25.2003 1.8784 25.9955L13.6716 29.6637L41.0647 12.5232C42.3539 11.6695 43.5261 12.1418 42.5619 12.9955L20.4034 32.892Z" fill="white"/>
</g>

</symbol><symbol id="icon-wp" viewBox="0 0 52 52">
<path d="M26.0065 0H25.9935C11.6578 0 0 11.661 0 26C0 31.6875 1.833 36.959 4.94975 41.2393L1.7095 50.8983L11.7032 47.7035C15.8145 50.427 20.7188 52 26.0065 52C40.3422 52 52 40.3358 52 26C52 11.6643 40.3422 0 26.0065 0Z" fill="white"/>
<path d="M41.1353 36.7153C40.508 38.4866 38.0185 39.9556 36.0328 40.3846C34.6743 40.6738 32.8998 40.9046 26.9263 38.4281C19.2855 35.2626 14.365 27.4983 13.9815 26.9946C13.6143 26.4908 10.894 22.8833 10.894 19.1523C10.894 15.4213 12.7888 13.6046 13.5525 12.8246C14.1798 12.1843 15.2165 11.8918 16.211 11.8918C16.5328 11.8918 16.822 11.9081 17.082 11.9211C17.8458 11.9536 18.2293 11.9991 18.733 13.2048C19.3603 14.7161 20.8878 18.4471 21.0698 18.8306C21.255 19.2141 21.4403 19.7341 21.1803 20.2378C20.9365 20.7578 20.722 20.9886 20.3385 21.4306C19.955 21.8726 19.591 22.2106 19.2075 22.6851C18.8565 23.0978 18.46 23.5398 18.902 24.3036C19.344 25.0511 20.8715 27.5438 23.1205 29.5458C26.0228 32.1296 28.3758 32.9551 29.2175 33.3061C29.8448 33.5661 30.5923 33.5043 31.0505 33.0168C31.6323 32.3896 32.3505 31.3496 33.0818 30.3258C33.6018 29.5913 34.2583 29.5003 34.9473 29.7603C35.6493 30.0041 39.364 31.8403 40.1278 32.2206C40.8915 32.6041 41.3953 32.7861 41.5805 33.1078C41.7625 33.4296 41.7625 34.9408 41.1353 36.7153Z" fill="#2E009F"/>
</symbol></svg>